<?xml version="1.0" encoding="UTF-8" standalone="no"?>
<svg width="540" height="960" viewBox="0 0 540 960" xmlns="http://www.w3.org/2000/svg">
  <!-- Background Sky -->
  <defs>
    <linearGradient id="skyGradient" x1="0%" y1="0%" x2="0%" y2="100%">
      <stop offset="0%" stop-color="#8e44ad" />
      <stop offset="100%" stop-color="#9b59b6" />
    </linearGradient>
  </defs>
  <rect width="540" height="960" fill="url(#skyGradient)"/>
  
  <!-- Stars/Particles -->
  <circle cx="50" cy="100" r="2" fill="white" opacity="0.9"/>
  <circle cx="150" cy="200" r="1.5" fill="white" opacity="0.7"/>
  <circle cx="250" cy="150" r="2" fill="white" opacity="0.9"/>
  <circle cx="350" cy="250" r="1" fill="white" opacity="0.6"/>
  <circle cx="450" cy="50" r="1.5" fill="white" opacity="0.8"/>
  <circle cx="480" cy="300" r="1" fill="white" opacity="0.7"/>
  <circle cx="400" cy="100" r="2" fill="white" opacity="0.8"/>
  <circle cx="100" cy="330" r="1.5" fill="white" opacity="0.9"/>
  <circle cx="300" cy="150" r="1" fill="white" opacity="0.7"/>
  <circle cx="200" cy="100" r="2" fill="white" opacity="0.8"/>
  <circle cx="380" cy="220" r="1" fill="white" opacity="0.6"/>
  
  <!-- Strange Landscape -->
  <path d="M0 550 C100 500, 150 600, 250 500 C350 400, 400 550, 540 520 L540 960 L0 960 Z" fill="#6c3483" opacity="0.8"/>
  
  <path d="M0 650 C80 630, 160 680, 240 640 C320 600, 400 660, 480 630 C520 615, 530 640, 540 630 L540 960 L0 960 Z" fill="#512e5f" opacity="0.9"/>
  
  <path d="M0 750 C50 730, 100 760, 150 740 C200 720, 250 750, 300 730 C350 710, 400 750, 450 730 C500 710, 520 740, 540 730 L540 960 L0 960 Z" fill="#4a235a" opacity="0.9"/>
  
  <!-- Strange Shapes -->
  <ellipse cx="100" cy="400" rx="30" ry="10" fill="#9b59b6" opacity="0.5" transform="rotate(30 100 400)"/>
  <ellipse cx="300" cy="350" rx="40" ry="15" fill="#9b59b6" opacity="0.4" transform="rotate(-20 300 350)"/>
  <ellipse cx="450" cy="400" rx="25" ry="8" fill="#9b59b6" opacity="0.6" transform="rotate(10 450 400)"/>
</svg>