<?xml version="1.0" encoding="UTF-8" standalone="no"?>
<svg width="540" height="960" viewBox="0 0 540 960" xmlns="http://www.w3.org/2000/svg">
  <!-- Background Sky -->
  <defs>
    <linearGradient id="skyGradient" x1="0%" y1="0%" x2="0%" y2="100%">
      <stop offset="0%" stop-color="#0d0d2b" />
      <stop offset="100%" stop-color="#1b1b4d" />
    </linearGradient>
    <radialGradient id="glowGradient" cx="50%" cy="50%" r="50%" fx="50%" fy="50%">
      <stop offset="0%" stop-color="#3498db" stop-opacity="0.6" />
      <stop offset="100%" stop-color="#3498db" stop-opacity="0" />
    </radialGradient>
  </defs>
  <rect width="540" height="960" fill="url(#skyGradient)"/>
  
  <!-- Glow effect -->
  <circle cx="270" cy="300" r="200" fill="url(#glowGradient)" opacity="0.3"/>
  
  <!-- Stars/Particles (many more) -->
  <circle cx="50" cy="100" r="2" fill="white" opacity="0.9"/>
  <circle cx="150" cy="200" r="1.5" fill="white" opacity="0.7"/>
  <circle cx="250" cy="150" r="2" fill="white" opacity="0.9"/>
  <circle cx="350" cy="250" r="1" fill="white" opacity="0.6"/>
  <circle cx="450" cy="50" r="1.5" fill="white" opacity="0.8"/>
  <circle cx="480" cy="300" r="1" fill="white" opacity="0.7"/>
  <circle cx="400" cy="100" r="2" fill="white" opacity="0.8"/>
  <circle cx="100" cy="330" r="1.5" fill="white" opacity="0.9"/>
  <circle cx="300" cy="150" r="1" fill="white" opacity="0.7"/>
  <circle cx="200" cy="100" r="2" fill="white" opacity="0.8"/>
  <circle cx="380" cy="220" r="1" fill="white" opacity="0.6"/>
  <circle cx="130" cy="420" r="1.5" fill="white" opacity="0.8"/>
  <circle cx="270" cy="180" r="2" fill="white" opacity="0.7"/>
  <circle cx="430" cy="320" r="1" fill="white" opacity="0.9"/>
  <circle cx="90" cy="280" r="1.5" fill="white" opacity="0.7"/>
  <circle cx="500" cy="150" r="1" fill="white" opacity="0.8"/>
  <circle cx="180" cy="350" r="1.5" fill="white" opacity="0.9"/>
  <circle cx="320" cy="80" r="2" fill="white" opacity="0.7"/>
  <circle cx="420" cy="200" r="1" fill="white" opacity="0.8"/>
  <circle cx="60" cy="200" r="2" fill="white" opacity="0.6"/>
  
  <!-- Cosmic Landscape -->
  <path d="M0 600 C60 550, 120 620, 180 570 C240 520, 300 600, 360 550 C420 500, 480 580, 540 530 L540 960 L0 960 Z" fill="#0b0b38" opacity="0.8"/>
  
  <path d="M0 700 C90 680, 180 730, 270 690 C360 650, 450 710, 540 670 L540 960 L0 960 Z" fill="#08082d" opacity="0.8"/>
  
  <path d="M0 800 C80 790, 160 810, 240 790 C320 770, 400 810, 480 790 C520 780, 530 800, 540 790 L540 960 L0 960 Z" fill="#050522" opacity="0.9"/>
  
  <!-- Floating Objects -->
  <ellipse cx="150" cy="500" rx="20" ry="8" fill="#3498db" opacity="0.7" transform="rotate(15 150 500)"/>
  <ellipse cx="350" cy="450" rx="25" ry="10" fill="#3498db" opacity="0.6" transform="rotate(-10 350 450)"/>
  <ellipse cx="460" cy="520" rx="18" ry="7" fill="#3498db" opacity="0.5" transform="rotate(25 460 520)"/>
  
  <!-- Glowing symbols -->
  <circle cx="270" cy="300" r="5" fill="#3498db" opacity="0.9"/>
  <circle cx="270" cy="300" r="15" fill="none" stroke="#3498db" stroke-width="1" opacity="0.6"/>
  <circle cx="270" cy="300" r="25" fill="none" stroke="#3498db" stroke-width="0.5" opacity="0.4"/>
</svg>