<svg xmlns="http://www.w3.org/2000/svg" width="540" height="120" viewBox="0 0 540 120">
  <!-- Base ground fill -->
  <rect width="540" height="120" fill="#8B4513" />
  
  <!-- Top surface texture -->
  <rect y="0" width="540" height="20" fill="#A0522D" />
  
  <!-- Details and texture -->
  <g fill="#6B2C14" opacity="0.7">
    <!-- Scattered rocks and details -->
    <circle cx="30" cy="40" r="5" />
    <circle cx="80" cy="30" r="3" />
    <circle cx="120" cy="50" r="4" />
    <circle cx="170" cy="35" r="6" />
    <circle cx="230" cy="45" r="4" />
    <circle cx="280" cy="30" r="5" />
    <circle cx="330" cy="50" r="3" />
    <circle cx="380" cy="40" r="6" />
    <circle cx="430" cy="30" r="4" />
    <circle cx="480" cy="45" r="5" />
    <circle cx="520" cy="35" r="3" />
    
    <!-- Middle area details -->
    <rect x="20" y="60" width="30" height="4" rx="2" />
    <rect x="90" y="70" width="20" height="3" rx="1" />
    <rect x="150" y="65" width="25" height="4" rx="2" />
    <rect x="210" y="75" width="15" height="3" rx="1" />
    <rect x="260" y="60" width="20" height="4" rx="2" />
    <rect x="320" y="70" width="30" height="3" rx="1" />
    <rect x="390" y="65" width="25" height="4" rx="2" />
    <rect x="450" y="75" width="20" height="3" rx="1" />
    <rect x="510" y="60" width="15" height="4" rx="2" />
    
    <!-- Lower area details -->
    <rect x="40" y="90" width="25" height="4" rx="2" />
    <rect x="110" y="100" width="15" height="3" rx="1" />
    <rect x="170" y="95" width="30" height="4" rx="2" />
    <rect x="240" y="105" width="20" height="3" rx="1" />
    <rect x="300" y="90" width="25" height="4" rx="2" />
    <rect x="370" y="100" width="15" height="3" rx="1" />
    <rect x="430" y="95" width="30" height="4" rx="2" />
    <rect x="500" y="105" width="20" height="3" rx="1" />
  </g>
  
  <!-- Grass on top -->
  <path d="M0,0 L540,0 L540,10 C530,12 520,8 510,11 C500,14 490,9 480,12 C470,15 460,10 450,13 C440,16 430,11 420,14 C410,17 400,12 390,15 C380,18 370,13 360,16 C350,19 340,14 330,17 C320,20 310,15 300,18 C290,21 280,16 270,19 C260,22 250,17 240,20 C230,23 220,18 210,21 C200,24 190,19 180,22 C170,25 160,20 150,23 C140,26 130,21 120,24 C110,27 100,22 90,25 C80,28 70,23 60,26 C50,29 40,24 30,27 C20,30 10,25 0,28 Z" fill="#50C878" opacity="0.8" />
</svg>