<svg xmlns="http://www.w3.org/2000/svg" width="200" height="120" viewBox="0 0 200 120">
  <!-- Main ground fill -->
  <rect width="200" height="120" fill="#8D6E63"/>
  
  <!-- Top surface with grass -->
  <rect width="200" height="20" fill="#388E3C"/>
  
  <!-- Grass detail -->
  <rect x="10" y="0" width="5" height="5" fill="#4CAF50"/>
  <rect x="30" y="0" width="3" height="7" fill="#4CAF50"/>
  <rect x="50" y="0" width="4" height="4" fill="#4CAF50"/>
  <rect x="80" y="0" width="6" height="5" fill="#4CAF50"/>
  <rect x="100" y="0" width="5" height="6" fill="#4CAF50"/>
  <rect x="130" y="0" width="3" height="4" fill="#4CAF50"/>
  <rect x="150" y="0" width="5" height="7" fill="#4CAF50"/>
  <rect x="180" y="0" width="4" height="5" fill="#4CAF50"/>
  
  <!-- Soil texture -->
  <rect x="15" y="30" width="20" height="10" fill="#795548" opacity="0.3"/>
  <rect x="50" y="40" width="30" height="15" fill="#795548" opacity="0.3"/>
  <rect x="100" y="35" width="25" height="8" fill="#795548" opacity="0.3"/>
  <rect x="150" y="45" width="35" height="12" fill="#795548" opacity="0.3"/>
  
  <rect x="25" y="60" width="15" height="7" fill="#795548" opacity="0.3"/>
  <rect x="70" y="70" width="20" height="9" fill="#795548" opacity="0.3"/>
  <rect x="120" y="65" width="25" height="15" fill="#795548" opacity="0.3"/>
  <rect x="160" y="75" width="18" height="8" fill="#795548" opacity="0.3"/>
  
  <rect x="10" y="90" width="30" height="10" fill="#795548" opacity="0.3"/>
  <rect x="60" y="100" width="25" height="8" fill="#795548" opacity="0.3"/>
  <rect x="110" y="95" width="15" height="12" fill="#795548" opacity="0.3"/>
  <rect x="140" y="105" width="40" height="10" fill="#795548" opacity="0.3"/>
</svg>