<svg xmlns="http://www.w3.org/2000/svg" width="128" height="32" viewBox="0 0 128 32">
  <!-- Main platform -->
  <rect x="0" y="0" width="128" height="32" fill="#8e44ad" rx="4" ry="4"/>
  
  <!-- Top surface with texture -->
  <rect x="0" y="0" width="128" height="8" fill="#9b59b6" rx="4" ry="4"/>
  
  <!-- Texture details -->
  <rect x="10" y="12" width="20" height="4" fill="#7d3c98" rx="2" ry="2"/>
  <rect x="40" y="12" width="10" height="4" fill="#7d3c98" rx="2" ry="2"/>
  <rect x="60" y="12" width="15" height="4" fill="#7d3c98" rx="2" ry="2"/>
  <rect x="85" y="12" width="25" height="4" fill="#7d3c98" rx="2" ry="2"/>
  
  <rect x="15" y="20" width="12" height="4" fill="#7d3c98" rx="2" ry="2"/>
  <rect x="35" y="20" width="18" height="4" fill="#7d3c98" rx="2" ry="2"/>
  <rect x="65" y="20" width="14" height="4" fill="#7d3c98" rx="2" ry="2"/>
  <rect x="90" y="20" width="20" height="4" fill="#7d3c98" rx="2" ry="2"/>
</svg>