<svg id="eEFUmYhT7IL1" xmlns="http://www.w3.org/2000/svg" xmlns:xlink="http://www.w3.org/1999/xlink" viewBox="0 0 64 64" shape-rendering="geometricPrecision" text-rendering="geometricPrecision" project-id="e0e77d07e0724f1d919c8c761c9f6d59" export-id="4824463f0b0c4d31a48158316684aa4f" cached="false"><g transform="matrix(.233561 0 0 0.217506-26.39025-15.396573)"><path d="M0,0h500v500h-500L0,0ZM212,81l-2,1-10,11-17,29-4,17-2,25-1,1v9l-1,1v19l3,7-2,1-17,1-7,2-4-1l1-2q1-8-3-10l-3-3q-8-1-10,3-3-1-2,2l-2,2-11,1-9,5-3,3-3,8l1,4q10,12,29,16l14-2l4-5l6-4l13-1l1-1h26l2,1l2,3l1,5v30l-1,1q-1,5,2,8l-1,1v11l-5,12v4l-4,12q1,2-2,1l-6-9-4-3-2-5-2-1-8,1-12,13-11,20-2,9l2,7l6,4l12-1l8-5l2-3l3-2l4-7l14,8h6l6-4l1-2l9-8q-1-3,2-2v-2l7-1l7-13l10-4l18-1l2-1l6-7l3-3l4-1l2,3l5,11q-2,11,3,17l4,3l9,3h3l11-6l8-11l5-5l17-10q14-10,22-26q1-10-3-14l-5-5-13-1-3-2h-3l-11,5q-7,3-8,11l-4,3-16,18-8-21-6-2q-7-2-8,1l-4-1l4-20l6-4l32-7l27-10q2-1,1,2l3,1l3-1l1-4l14-2l15-15-1-10-6-14-3-3-5-1-11,1-4,2-2,3-2,2q-7-1-9,1l-4,8v4l5,8q-9,2-16,8l-14,2-3,1h-2l6-5l4-8v-5l2-5v-6l2-7v-8l2-9v-8l1-1v-9l1-1v-21l-2-3-19-9-43-15-29-8h-15Z" opacity="0" stroke="#000"/><path d="M217.5,83l2.5.5-2.5.5v-1Z" opacity="0.996078" fill="#f9e343" stroke="#f9e343"/><path d="M209.5,84l-.5,1.5l1,2-2,3-1,11-1,1-2,25-1,1v7l-3,17v2l-1,25v2q-.6,6.4-5.5,8.5l-15,8-1.5-2.5v-27l1-1v-15l1-1l1-15l3-13l17-29L209.5,84Z" opacity="0.996078" fill="#f9e343" stroke="#f9e343"/><path d="M268.5,96l2.5.5-2.5.5v-1Z" opacity="0.996078" fill="#f9e343" stroke="#f9e343"/><path d="M353.5,173h2l4,1q1.8-2.8,8-1l2.5,1q-1,4.3,2,3.5v4q3.6,1.4,3,7l-2.5-1.5-3,2-1.5-.5l2,3l.5,1.5q-2.2.8-1.5-1.5h-1q.7,2.6-2,1.5q1.2-3.7-4-2l1.5,3l1.5.5-2.5.5-3.5-1-2-6-2,.5l1,2-2-1l1-5q-1.2-2.7-2.5-.5-2.2.8-1.5-1.5l.5-1.5-3,1l.5-1.5-.5-1.5-14.5,9q-.6-5.3,3.5-8l9-1l1.5-1.5l2.5-3.5l3-1Zm15.5,4v3q3-1,0-3Zm-9,11l-1,3h1v-3Z" opacity="0.996078" fill="#f9e343" stroke="#f9e343"/><path d="M137.5,192q5.3-1.2,6.5,1.5l1,3-3,5l3-1-3.5,2.5-6.5-3q1.3-3-2.5-2v-1l2.5-.5-1-2.5l3.5-2Z" opacity="0.996078" fill="#f9e343" stroke="#f9e343"/><path d="M374.5,192l2.5.5-2.5.5v-1Z" opacity="0.996078" fill="#f9e343" stroke="#f9e343"/><path d="M128.5,198l2.5.5-1,1l5,5l2.5,3.5q2.3-.7,1.5,1.5l.5,1.5-1.5.5l1,2-4,3l.5,1.5-2-1v2l-4.5-1-.5,2-2-4-2.5.5l2,1-2.5.5-3.5-2-.5-2h-2l-5-3h-5l-2.5,1.5q.7-6.3,5.5-8.5l8-4l10-2ZM118,210l-2,2h2v-2Zm0,2v2l2-1-2-1Z" opacity="0.996078" fill="#f9e343" stroke="#f9e343"/><path d="M335.5,202l1,3q1.8-3.7,3.5-.5l-2,.5q1.3,3.3-3.5,2l-5,3q-9.6-1.1-14,3l1-2l19-9Z" opacity="0.996078" fill="#f9e343" stroke="#f9e343"/><path d="M167.5,205l3.5,1.5-2,1l.5,1.5-9.5-.5l7.5-3.5Z" opacity="0.996078" fill="#f9e343" stroke="#f9e343"/><path d="M177.5,205l2.5,1.5-1.5,3.5-1-3-4,2q-3-1.5,0-3l4-1Z" opacity="0.996078" fill="#f9e343" stroke="#f9e343"/><path d="M155,208l3,.5-3,1.5v-2Z" opacity="0.996078" fill="#f9e343" stroke="#f9e343"/><path d="M320.5,212l-1,2l1-2Z" opacity="0.996078" fill="#f9e343" stroke="#f9e343"/><path d="M276.5,259q12-2.5,14.5,4.5l2,11-2,1q.7-2.6-2-1.5v-2.5l-1.5.5q-2.6-.7-1.5,2q3.3-1.1,2,3l-7,1l1-4-3.5,1-4-5h-10l-9,3-.5-1.5l2-4-1.5.5q-2.2.8-1.5-1.5l1-2.5l8.5-4h12l1-1Z" opacity="0.996078" fill="#f9e343" stroke="#f9e343"/><path d="M253,269l2,.5-1.5,2.5-.5-3Z" opacity="0.996078" fill="#f9e343" stroke="#f9e343"/><path d="M288.5,280l1,2-1-2Z" opacity="0.996078" fill="#f9e343" stroke="#f9e343"/><path d="M178.5,301h4l4.5,4.5l4.5,8.5l2.5-1l2-7l5,3.5-4-2q-1.9,9.5-6,15.5-3.8.8-5-2.5l1.5.5l1.5-.5-3-5.5q-2.7,1.1-2-1.5l-2.5-1.5-1.5.5.5-1.5h-1.5v-2q-2.7,1.1-2-1.5l2-5-.5-1.5ZM191,314l-1,3h1v-3Z" opacity="0.996078" fill="#f9e343" stroke="#f9e343"/><path d="M240.5,109q6.9-.9,8.5,3.5l1,6-2,11-4.5,6.5-5,1v-1q5.8.8,6.5-3.5l2-6l1-10-2.5-4.5-5-1q-4.5,1.5-5,7l-.5-2.5l5.5-6.5Z" opacity="0.996078" fill="#bc4b27" stroke="#bc4b27"/><path d="M288.5,124q7.3-1.2,8.5,3.5v7l-2,8-3.5,4.5.5-1.5l3-10v-7q-.5-4-5.5-3.5l-3.5,2.5-.5,1.5-.5-1.5l3.5-3.5Z" opacity="0.996078" fill="#bc4b27" stroke="#bc4b27"/><path d="M224.5,138l6,1l8,5l14,5q6.7-.7,10,2h8l1,1h10l1,1l3-1h2q5.8-.8,7.5,2.5l1,6-4,10-5.5,6.5-8,3-16,1-19-4q-10.3-3.7-16.5-11.5-6.6-6.4-6-20l1-5l2.5-2.5Zm6.5,6l-1,11l12,5l27,5h9l5-1q3-3,2-10h-13l-8-2h-6l-4-2h-5l-7-2-7-4h-4Z" opacity="0.996078" fill="#bc4b27" stroke="#bc4b27"/><path d="M283.5,145l1,2-1-2Z" opacity="0.996078" fill="#bc4b27" stroke="#bc4b27"/><path d="M204.5,183l2,3l5.5.5-4,2l.5,1.5h8v-1l-4.5-.5l6.5-.5l4.5,1.5-4,1l5,.5.5-2l6,2h2l9.5,1l.5,2h2l12,1l13,3h9l15.5,3-1,2.5l2.5.5v-2q5.9-1.7,4.5,2-3-1.2-2,2.5l1.5-.5l3-1-3,4-2.5,1.5l5,.5-1,2.5v12l1.5-.5l23.5-6q-1.3-3.3,3.5-2l18-8h2l5.5-2.5-7.5-5.5q-5.5.5-7.5-2.5l.5-1.5q1.4,2.6,6,2l3.5-2-1-5.5v-2l.5-4.5l6.5,17l5.5,2l3-2l4,1l3-2-4,5-1-2q-.1,6.4-5,8L349,213q.8,3.8-2.5,5l-5-3-7,3-10,2-8,4-35,8-5.5,3.5-4,23.5-13.5,2h-2l-18,4-24.5,1l1-8l3-1.5q1.3-10.3-1-17L208.5,228l-11-9h-32l-1,1-11,1v-1l7-2l2,1l9-2h8l1.5.5l1-5-1-4l2.5-.5l12,1l8,4h3l1-2-13.5-7.5q.9-3.4-4.5-1.5l-2.5-1.5l8.5-2.5l4-4l5.5-1v-2q2.7,1.1,2-1.5l-1-2.5q-2.7-1.1-2,1.5l.5,1.5-3.5-1.5l3.5-5.5Zm2.5,8l-2,4h2l1,1q-1-5,4-3v-2h-5Zm18,0v1h3l-3-1Zm136,14v1h2l-2-1Z" opacity="0.996078" fill="#bc4b27" stroke="#bc4b27"/><path d="M131.5,199l9,8q1.3-2.2,2.5.5-3.1,1.8-1.5,3.5l-2.5-4-3-1.5-4.5-6.5Z" opacity="0.996078" fill="#bc4b27" stroke="#bc4b27"/><path d="M107.5,217l1,2-1-2Z" opacity="0.996078" fill="#bc4b27" stroke="#bc4b27"/><path d="M112.5,221l4.5,3.5-2.5-1.5-2-2Z" opacity="0.996078" fill="#bc4b27" stroke="#bc4b27"/><path d="M119.5,225l3,2l1.5-.5-.5,1.5l7,2l4.5-1l.5-2l.5,2l2.5,1l2-1-1,2h-11l-9.5-4l.5-2Z" opacity="0.996078" fill="#bc4b27" stroke="#bc4b27"/><path d="M253.5,265l.5,1.5-1,1v9l3.5,5.5l8-1l10-5l3.5,8.5-7.5,1.5-3.5,3.5-2,3-5.5,4.5h-14L232,302l-6,12-9,3.5-3.5,4.5-4.5,3.5-5.5,6.5-7,3-5.5-3.5l1.5-.5h2q2.3.8,1.5-1.5l4-6.5q2.7,1.1,2-1.5q4.6-3.3,5-9.5l-9-5.5l1.5-.5l3.5,1-1-3.5l4-3l6-14.5l3-1.5-2-4l14-8-3.5-.5-9,2-.5-3l3.5-1h16l1-1-1,2q-9.4,3.6-14.5,11.5l.5,1.5l1.5-.5q-.7,2.3,1.5,1.5h2q15.6-3.6,26.5-11-.9-6,2.5-9ZM228,271v1h2l-2-1Zm45,6l-2,2h2v-2Zm-72,47v2l2-1-2-1Zm-5,8v1h2l-2-1Z" opacity="0.996078" fill="#bc4b27" stroke="#bc4b27"/><path d="M282.5,294l1.5,2.5h-1l-.5-2.5Z" opacity="0.996078" fill="#bc4b27" stroke="#bc4b27"/><path d="M175.5,308l5,14l1.5-.5-.5,1.5q2.3-.7,1.5,1.5l.5,1.5-4.5-3.5-2.5-5.5-1.5-.5.5-8.5Z" opacity="0.996078" fill="#bc4b27" stroke="#bc4b27"/><path d="M214.5,83l20,3q13.8,6.2,31,9l49,18l4.5,3.5-1,30-2,8v9l-2,7v7l-4,20-4.5,6.5-7,3-.5-3q3,1,2-2l-5,.5.5,1.5-2.5-.5l1-2.5-15.5-3-17-1-5-2h-6l-7-2-1.5.5q.9-3.4-4.5-1.5l-6-2-2,1-5-2-.5,2l4,.5-3.5.5-5.5-1.5l4-1q-3.7-2.2-10.5-1.5v1l4.5.5-9,.5l1.5-3l2.5-.5q-5.4.9-7-2l-.5-1.5-3.5,5.5l3,.5q-1-3,2-2l1,4h5v2q-5.2-2.1-4,2.5l-1.5-.5-1.5-.5l2-3.5h-2q1.1,2.7-1.5,2l-4,1-4,4-8.5,2.5l2,1-5.5.5-4.5-2.5q-1.1-3.3,1.5-2.5q10.9-3.6,17.5-11.5l2-5-1-1v-16l2-10v-2l4-42l1-1l2-18l2-3-1-2l5.5-2.5ZM241,109l-6,7-2,9q-1,6,1,10l5,2l5-1l4-6l2-9-1-8q-2-5-8-4Zm47,15l-4,6-2,10l1,6l7,2l2-1l3-4l2-8v-7q-2-5-9-4Zm-63,14l-3,3-1,5q-1,13,6,20q6,7,17,11l19,4l16-1l12-6-1-1l6-12-1-6q-2-4-7-3h-2l-3,1-1-1h-10l-1-1h-8q-4-3-10-2l-14-5-8-5-6-1Z" opacity="0.996078" fill="#e5962d" stroke="#e5962d"/><path d="M347.5,177l-1,2l1-2Z" opacity="0.996078" fill="#e5962d" stroke="#e5962d"/><path d="M369.5,178l-1,2l1-2Z" opacity="0.996078" fill="#e5962d" stroke="#e5962d"/><path d="M348.5,179l.5,1.5-.5,1.5l3-1-.5,1.5q-.7,2.3,1.5,1.5q1.3-2.2,2.5.5l-1,5l2,1-1-2l2-.5l2,6l5.5,1v-1l-2.5-1.5v-1.5h4q-1,3,2,2l.5-2l.5,2l2-.5-1-2.5q-2.7,1.1-2-1.5v-2l.5-1.5l1,2h2l4.5,2l1,2.5-3,1l4,2-1,3.5-8.5,5h-3l-2-1-4,2-3.5-2-6.5-17-.5,4.5l1,3q1.9,5.4-1.5,4.5-.7,2.8-5,2l-3-2-.5,1.5q2,3,7.5,2.5l7.5,5.5-6.5,3.5h-2-3l-14,7h-3.5q1.3,3.3-3.5,2l-2,2-16,3-3,2-.5-12.5l1-2.5l19.5-4l17.5-9-1-4-3-1.5-1-4.5l14.5-9ZM336,202l-4,2-1,3-2-1-12,5-1,2q4-4,14-3l5-3q4,1,3-2h2q-2-4-4,1l-2-1h2v-3Z" opacity="0.996078" fill="#e5962d" stroke="#e5962d"/><path d="M359.5,188l.5,2.5h-1l.5-2.5Z" opacity="0.996078" fill="#e5962d" stroke="#e5962d"/><path d="M145.5,196q2.5,1,1.5,5.5l-3,5l13.5.5q1.5-2.5,7-1v1q-3.7-.7-4.5,1.5l9.5.5v-2l1.5-.5-3-1l8.5-.5v1q-3.7-.7-4.5,1.5l2.5,1.5l3-2l1,3l1.5-3.5-.5-1.5l2-1h13l13.5,7.5q-.7,2.3-4.5,1.5l-8-4-12-1-2.5.5l1,7-1.5,2.5-1-1h-8l-10,2h-2l-6.5,1-6.5,9-5,1-2-1h-2q-2.2.8-1.5-1.5h-1q.9,3-3.5,1.5l-3,1-9-5-1,1q-2.3-4.2-4.5-2.5q2.3-1.2-.5-2.5-3.7.8-4.5-1.5l-1.5-2.5-2.5-1.5q-.5-4,2.5-4.5l5.5-.5-.5-3.5l2.5,1.5-2,1l2,1-2,1l5,2.5q1.1-2.7-1.5-2l1-2l.5,2l2,.5v2q-.7,2.3,1.5,1.5l2-1l4.5,2.5q-2.2,1.3.5,2.5l.5-2l4.5,1v-2l3.5-1.5v-2l1.5-2.5l1.5-.5-.5-1.5q1.3,2.3,2.5-.5l-2.5-1.5-2,1-7.5-8.5q1.2-2.5,5-1.5-1.1,2.7,1.5,2l6,3-.5-1.5l3.5-5.5Zm-8.5,8l-1,2l3,1-2-3Zm18,4v2l3-1-3-1Zm-32,8l1,2h2l-3-2Z" opacity="0.996078" fill="#e5962d" stroke="#e5962d"/><path d="M366.5,204l.5,2.5h-1l.5-2.5Z" opacity="0.996078" fill="#e5962d" stroke="#e5962d"/><path d="M360.5,205l2.5.5-3.5,1.5l1-2Z" opacity="0.996078" fill="#e5962d" stroke="#e5962d"/><path d="M202.5,223l8.5,7.5q9.2,7.3,7,26l-3,1.5-1,8l7,.5-15.5.5q-3.3-1.7-2.5-7.5l1-1v-29l-1.5-6.5Z" opacity="0.996078" fill="#e5962d" stroke="#e5962d"/><path d="M257.5,260l2.5,1.5-1.5.5-1-2Z" opacity="0.996078" fill="#e5962d" stroke="#e5962d"/><path d="M229.5,265l3.5.5-3.5.5v-1Z" opacity="0.996078" fill="#e5962d" stroke="#e5962d"/><path d="M251.5,266l-.5,3.5-.5,1.5-2.5-1-1,4-4,1q1.1,2.7-1.5,2l-6,4-1-1-3,3-6,2-.5-2-2.5-1-2,1v-1l2-1l3,1l4-3v2q2.3.8,1.5-1.5l2.5-.5l6.5-4.5l2-4.5l9.5-4Z" opacity="0.996078" fill="#e5962d" stroke="#e5962d"/><path d="M253.5,267l2,1l1.5-.5-2,5l1.5-.5q5.7.7,8-2h10l4,5l3.5-1-1,4l7-1v-3q-3,1-2-2l2.5-1l.5,3q2.7-1.1,2,1.5l2-1-1-5h1l3,12q-8.2,5-10,15.5-2.7,1.1-2-1.5l-7-12q.5-5.5-2.5-7.5l-2.5.5l1,2.5-2-.5.5-1.5q-4.8,5.2-15,5-4.2-2.3-3.5-9.5l2-3-2-.5.5-2Z" opacity="0.996078" fill="#e5962d" stroke="#e5962d"/><path d="M212.5,270l4.5.5-3,.5-.5,3h-9.5v-3h7.5l1-1Z" opacity="0.996078" fill="#e5962d" stroke="#e5962d"/><path d="M227.5,271l2.5.5-3.5,1.5l1-2Z" opacity="0.996078" fill="#e5962d" stroke="#e5962d"/><path d="M215.5,273l3.5.5-3.5.5v-1Z" opacity="0.996078" fill="#e5962d" stroke="#e5962d"/><path d="M206.5,280l5.5,2.5-1,2l1,3-2.5,3.5q-2.2-.7-1.5,1.5l-2,5.5q-3-1.2-2,2.5l-3.5,4.5q-2.7-1.2-1.5-6.5l4-7l2-10l1.5-1.5Z" opacity="0.996078" fill="#e5962d" stroke="#e5962d"/><path d="M178.5,300l3.5.5-4,1v2l-1,5.5h2q-1.1,2.7,1.5,2l3.5,2.5l2,3l3,4-2,1l4,1.5l6.5-16h2l3,3l4.5,2v2.5l-5,8.5q-2.7-1.1-2,1.5l-4,6.5-2.5,1-9.5-5-1-4-3-1.5-5-16l3.5-5.5Z" opacity="0.996078" fill="#e5962d" stroke="#e5962d"/><path d="M189.5,313l1.5,3.5-1.5,2.5-1.5-2.5h2l-.5-3.5Z" opacity="0.996078" fill="#e5962d" stroke="#e5962d"/><path d="M209.5,321l-1,2l1-2Z" opacity="0.996078" fill="#e5962d" stroke="#e5962d"/><path d="M203.5,323l-2,3-.5-2l2.5-1Z" opacity="0.996078" fill="#e5962d" stroke="#e5962d"/><path d="M195.5,332l2.5.5-2.5.5v-1Z" opacity="0.996078" fill="#e5962d" stroke="#e5962d"/><path d="M211.5,81h15l44,13l35,13l10,5l3.5,3.5-1.5-.5-14-7-9-2-11-4-2-2-9-2-2-2h-4l-10-4h-5l-3-2h-3l-6-3-9-1-3-2-14-1-4,1-5.5,5.5L190.5,110l.5-1.5q6.8-15.7,18.5-26.5l2-1Z" opacity="0.894118" fill="#d2c8b7" stroke="#d2c8b7"/><path d="M189.5,111l-.5,1.5-5.5,10.5-.5-1.5l6.5-10.5Z" opacity="0.894118" fill="#d2c8b7" stroke="#d2c8b7"/><path d="M241.5,111l5.5,3.5v10L242.5,135l-5,1-2.5-1q-2.1-3.3-1-11.5l2-7l3.5-4.5l2-1Z" opacity="0.894118" fill="#d2c8b7" stroke="#d2c8b7"/><path d="M319.5,117l.5,13.5h-1l.5-13.5Z" opacity="0.894118" fill="#d2c8b7" stroke="#d2c8b7"/><path d="M288.5,126q4.5-1,5.5,1.5l1,6-2,9-3.5,4.5q-4.5,1-5.5-1.5l-1-7l2-8l3.5-4.5Z" opacity="0.894118" fill="#d2c8b7" stroke="#d2c8b7"/><path d="M181.5,127l.5,4.5-1.5,4.5-.5-3.5l1.5-5.5Z" opacity="0.894118" fill="#d2c8b7" stroke="#d2c8b7"/><path d="M318.5,134l.5,6.5h-1l.5-6.5Z" opacity="0.894118" fill="#d2c8b7" stroke="#d2c8b7"/><path d="M179.5,138l.5,5.5h-1l.5-5.5Z" opacity="0.894118" fill="#d2c8b7" stroke="#d2c8b7"/><path d="M232.5,144l17,7h5l5,2h6l8,2h11.5l-1,6.5-2.5,2.5h-19q-1.3-2.3-6-1l-10-2-16.5-6.5v-4l2.5-6.5Z" opacity="0.894118" fill="#d2c8b7" stroke="#d2c8b7"/><path d="M178.5,145l.5,6.5h-1l.5-6.5Z" opacity="0.894118" fill="#d2c8b7" stroke="#d2c8b7"/><path d="M177.5,154l.5,13.5-1,1v27l3.5,5.5q3.8,2.7,12,1l1.5,1.5-48,3.5q-1.1-2.7,1.5-2l2-1l2,1l14-3h10l2.5-1-3-7.5v-19l1-1l1.5-19.5Z" opacity="0.894118" fill="#d2c8b7" stroke="#d2c8b7"/><path d="M316.5,154l.5,3.5h-1l.5-3.5Z" opacity="0.894118" fill="#d2c8b7" stroke="#d2c8b7"/><path d="M358.5,169l9,1l4.5,2.5l7,18v5h-1l-3-10-3-5v-3.5h-2q1.5-3.7-1.5-3l-1-1h-14q-5.7,1.3-8,6-7.2-1.2-9.5,2.5l-2.5,8.5q-2.2-.7-1.5-4.5l6.5-8.5h6l6-6l8-2Z" opacity="0.894118" fill="#d2c8b7" stroke="#d2c8b7"/><path d="M314.5,170l.5,5.5h-1l.5-5.5Z" opacity="0.894118" fill="#d2c8b7" stroke="#d2c8b7"/><path d="M313.5,178l.5,2.5h-1l.5-2.5Z" opacity="0.894118" fill="#d2c8b7" stroke="#d2c8b7"/><path d="M312.5,183l.5,3.5h-1l.5-3.5Z" opacity="0.894118" fill="#d2c8b7" stroke="#d2c8b7"/><path d="M311.5,188l.5,3.5h-1l.5-3.5Z" opacity="0.894118" fill="#d2c8b7" stroke="#d2c8b7"/><path d="M137.5,189q6.5-1,8.5,2.5q3.7,2.8,3,10l-3,2q2.3-1.2,1-6l-4.5-5.5q-6.5-1-8.5,2.5l-2.5,3.5-13,2-8,4-4.5,4.5-1,7q9.4,11.1,25,16l-3.5.5q-10.7-4.2-18.5-11.5.8-2.2-1.5-1.5-3.2-1.7-3.5-6.5l3-8l2.5-2.5q7.5-7,22.5-6.5v-2q-.7-2.2,1.5-1.5l5-3Z" opacity="0.894118" fill="#d2c8b7" stroke="#d2c8b7"/><path d="M310.5,193l.5,2.5h-1l.5-2.5Z" opacity="0.894118" fill="#d2c8b7" stroke="#d2c8b7"/><path d="M336.5,198l-1,2-1.5-.5l2.5-1.5Z" opacity="0.894118" fill="#d2c8b7" stroke="#d2c8b7"/><path d="M332.5,200l-1,2-1.5-.5l2.5-1.5Z" opacity="0.894118" fill="#d2c8b7" stroke="#d2c8b7"/><path d="M325.5,203l1.5.5-6.5,3.5v-1l5-3Z" opacity="0.894118" fill="#d2c8b7" stroke="#d2c8b7"/><path d="M311.5,207l7.5.5-17.5,3.5l1-2l2-1l2,1l5-2Z" opacity="0.894118" fill="#d2c8b7" stroke="#d2c8b7"/><path d="M165.5,220l3.5.5-3.5.5v-1Z" opacity="0.894118" fill="#d2c8b7" stroke="#d2c8b7"/><path d="M200.5,221l2.5,3.5l1,5v29l-1,5l2.5,3.5h15l1-1h11l1-1h2l5,1l2-2l15.5-3-1.5,3h-4L242,270l-5.5,8-4,2-1.5-.5q.8,2.3-1.5,1.5l-2-1-4,2-2.5-.5q5.5-8,15-12l-10.5-.5-1,1-20.5,1l.5,3h14l7-2-1,2-9,5-9,1-1.5,1.5q-.7,10.8-6,17v5l.5,1.5-3-2-.5,1.5v2l-2,6.5-2.5,1q-1.7-7.8-7.5-11.5l3-.5l5.5,8l4.5-14.5v-4l5-12q-1.4-8.9,1-14-2.7-.7-2-5l1-1v-12l1-1-1-3v-15l-1-1v-2l-.5-4.5Z" opacity="0.894118" fill="#d2c8b7" stroke="#d2c8b7"/><path d="M153.5,222l2.5.5-2.5.5v-1Z" opacity="0.894118" fill="#d2c8b7" stroke="#d2c8b7"/><path d="M150.5,226l-2,3l2-3Z" opacity="0.894118" fill="#d2c8b7" stroke="#d2c8b7"/><path d="M132.5,231l2.5,1.5-1.5.5-1-2Z" opacity="0.894118" fill="#d2c8b7" stroke="#d2c8b7"/><path d="M138.5,231l5.5.5-5.5.5v-1Z" opacity="0.894118" fill="#d2c8b7" stroke="#d2c8b7"/><path d="M337.5,243q4.6-.6,6,2l13,1l5.5,4.5l2,5h-1l-4.5-5.5h-11l-13,5q-15.4,8.1-25.5,21.5l-15,20-7,13v2.5l-2,.5l1,2h-1l-1-2l10-20-2.5-1.5-6,8-.5-1.5l4-9l7-7v-2l-4-14-5.5-6.5-17,1v-1l13-2l5,1l4.5,3.5l6.5,18.5l1.5-3q2.7,1.1,2-1.5l3-1.5v-1.5L316.5,261l3.5-1.5-1-3l6.5-7.5l12-6Z" opacity="0.894118" fill="#d2c8b7" stroke="#d2c8b7"/><path d="M364.5,257l.5,6.5h-1l.5-6.5Z" opacity="0.894118" fill="#d2c8b7" stroke="#d2c8b7"/><path d="M272.5,286l2.5.5-2.5.5v-1Z" opacity="0.894118" fill="#d2c8b7" stroke="#d2c8b7"/><path d="M270.5,287l-1,2l1-2Z" opacity="0.894118" fill="#d2c8b7" stroke="#d2c8b7"/><path d="M268.5,290l-2,3l2-3Z" opacity="0.894118" fill="#d2c8b7" stroke="#d2c8b7"/><path d="M172.5,291l6.5,1l2,5l4,2.5-.5,1.5q-1.2-3.2-7-2l-1.5,2.5v2l-.5,1.5-1-2q-2.7,5.8-2,15l-2-4q-2.7,1.3-.5,2.5l2.5,3.5l4.5,1.5-2,1l2,1-1.5.5-6-5-3,4-1.5-2.5.5-2.5l1.5.5l2-4-.5-1.5l1.5.5-1.5-2.5q-3-.8-1.5,3h-2.5v-1q2.3.8,1.5-1.5l-.5-2.5-2.5,1.5-1,3l.5,1.5q-1.2-2.2-2.5.5q2.3,1.3-.5,2.5l-1.5-.5-1,5.5q-2.7,1.1-2-1.5l7-11l1-4-2,1-12,18-2.5,15.5q.3-5.2-2.5-7.5l2-9l11-20L168.5,292l4-1ZM166,306l-1,2l2,1-1-3Z" opacity="0.894118" fill="#d2c8b7" stroke="#d2c8b7"/><path d="M252.5,297l3.5.5-3.5.5v-1Z" opacity="0.894118" fill="#d2c8b7" stroke="#d2c8b7"/><path d="M257.5,297l3.5.5-3.5.5v-1Z" opacity="0.894118" fill="#d2c8b7" stroke="#d2c8b7"/><path d="M244.5,298l3.5.5-3.5.5v-1Z" opacity="0.894118" fill="#d2c8b7" stroke="#d2c8b7"/><path d="M283.5,301l.5,4.5h-1l.5-4.5Z" opacity="0.894118" fill="#d2c8b7" stroke="#d2c8b7"/><path d="M324.5,301l-2,3l2-3Z" opacity="0.894118" fill="#d2c8b7" stroke="#d2c8b7"/><path d="M232.5,304l-1,2l1-2Z" opacity="0.894118" fill="#d2c8b7" stroke="#d2c8b7"/><path d="M230.5,307l-1,2l1-2Z" opacity="0.894118" fill="#d2c8b7" stroke="#d2c8b7"/><path d="M283.5,307l.5,3.5h-1l.5-3.5Z" opacity="0.894118" fill="#d2c8b7" stroke="#d2c8b7"/><path d="M319.5,308l-1,2l1-2Z" opacity="0.894118" fill="#d2c8b7" stroke="#d2c8b7"/><path d="M316.5,312l-4,5l4-5Z" opacity="0.894118" fill="#d2c8b7" stroke="#d2c8b7"/><path d="M163.5,316l-1,2l1-2Z" opacity="0.894118" fill="#d2c8b7" stroke="#d2c8b7"/><path d="M219.5,316l-1,2l1-2Z" opacity="0.894118" fill="#d2c8b7" stroke="#d2c8b7"/><path d="M286.5,316l3,4-3-4Z" opacity="0.894118" fill="#d2c8b7" stroke="#d2c8b7"/><path d="M216.5,319l.5,1.5-9,8-1.5,2.5-6,4l1-2l15-14Z" opacity="0.894118" fill="#d2c8b7" stroke="#d2c8b7"/><path d="M162,322l4.5,3l10.5,2.5-2.5.5h-2l-8-2-2-2-.5,2.5l2,3-.5,1.5l11,3q4.3-1.3,3.5-6l3,.5-4.5,5.5-5,1-3-1l1,3-3.5-2.5l2-1q-6.5-.5-9-5l3-6.5Zm0,5q-3,2,0,3h1l-1-3Z" opacity="0.894118" fill="#d2c8b7" stroke="#d2c8b7"/><path d="M299.5,322l2.5.5-2.5.5v-1Z" opacity="0.894118" fill="#d2c8b7" stroke="#d2c8b7"/><path d="M181.5,326l6.5,4.5-3.5-2.5q-3.7-.3-3-2Z" opacity="0.894118" fill="#d2c8b7" stroke="#d2c8b7"/><path d="M156.5,331l.5,1.5-1,4l1,2h-1l-1-5l1.5-2.5Z" opacity="0.894118" fill="#d2c8b7" stroke="#d2c8b7"/><path d="M189.5,331l1,2-1-2Z" opacity="0.894118" fill="#d2c8b7" stroke="#d2c8b7"/><path d="M171.5,338l-2,3l2-3Z" opacity="0.894118" fill="#d2c8b7" stroke="#d2c8b7"/><path d="M156.5,344l2.5.5-2.5.5v-1Z" opacity="0.894118" fill="#d2c8b7" stroke="#d2c8b7"/><path d="M245.5,112l1,2-1-2Z" opacity="0.886275" fill="#90797e" stroke="#90797e"/><path d="M317.5,113l2.5,3.5h-1l-1.5-3.5Z" opacity="0.886275" fill="#90797e" stroke="#90797e"/><path d="M247.5,116l.5,2.5h-1l.5-2.5Z" opacity="0.886275" fill="#90797e" stroke="#90797e"/><path d="M234,118l2,.5-2,1v-1.5Z" opacity="0.886275" fill="#90797e" stroke="#90797e"/><path d="M287.5,124l.5,2.5-1.5,1.5-.5-2.5l1.5-1.5Z" opacity="0.886275" fill="#90797e" stroke="#90797e"/><path d="M289.5,125l2.5.5-2.5.5v-1Z" opacity="0.886275" fill="#90797e" stroke="#90797e"/><path d="M319.5,131l.5,5.5h-1l.5-5.5Z" opacity="0.886275" fill="#90797e" stroke="#90797e"/><path d="M234.5,133l.5,2l2,.5-1.5.5-1-3Z" opacity="0.886275" fill="#90797e" stroke="#90797e"/><path d="M283.5,135l.5,2.5h-1l.5-2.5Z" opacity="0.886275" fill="#90797e" stroke="#90797e"/><path d="M282.5,139l1.5,5.5-2-1l.5-4.5Z" opacity="0.886275" fill="#90797e" stroke="#90797e"/><path d="M318.5,141l.5,5.5h-1l.5-5.5Z" opacity="0.886275" fill="#90797e" stroke="#90797e"/><path d="M233.5,144l5.5,2.5-1.5.5-4-2v-1Z" opacity="0.886275" fill="#90797e" stroke="#90797e"/><path d="M291.5,145l-1,2l1-2Z" opacity="0.886275" fill="#90797e" stroke="#90797e"/><path d="M242.5,148l2.5.5-2.5.5v-1Z" opacity="0.886275" fill="#90797e" stroke="#90797e"/><path d="M317.5,149l.5,6.5h-1l.5-6.5Z" opacity="0.886275" fill="#90797e" stroke="#90797e"/><path d="M249.5,150l4.5.5-4.5.5v-1Z" opacity="0.886275" fill="#90797e" stroke="#90797e"/><path d="M259.5,152l4.5.5-4.5.5v-1Z" opacity="0.886275" fill="#90797e" stroke="#90797e"/><path d="M266.5,153l4.5.5-4.5.5v-1Z" opacity="0.886275" fill="#90797e" stroke="#90797e"/><path d="M273.5,154l11.5.5-11.5.5v-1Z" opacity="0.886275" fill="#90797e" stroke="#90797e"/><path d="M316.5,160l.5,3.5h-1l.5-3.5Z" opacity="0.886275" fill="#90797e" stroke="#90797e"/><path d="M268.5,164l9.5.5-9.5.5v-1Z" opacity="0.886275" fill="#90797e" stroke="#90797e"/><path d="M315.5,165l.5,7.5h-1l.5-7.5Z" opacity="0.886275" fill="#90797e" stroke="#90797e"/><path d="M348.5,172l-1,2l1-2Z" opacity="0.886275" fill="#90797e" stroke="#90797e"/><path d="M314.5,176l.5,2.5h-1l.5-2.5Z" opacity="0.886275" fill="#90797e" stroke="#90797e"/><path d="M313.5,181l.5,4.5h-1l.5-4.5Z" opacity="0.886275" fill="#90797e" stroke="#90797e"/><path d="M312.5,187l.5,2.5h-1l.5-2.5Z" opacity="0.886275" fill="#90797e" stroke="#90797e"/><path d="M332.5,189l6.5,9q-2.7,1.1-2-1.5-4.1-2.8-4.5-7.5Z" opacity="0.886275" fill="#90797e" stroke="#90797e"/><path d="M311.5,192l.5,3.5-4,8.5-6,4.5-1.5,2.5q-3.7,1-2.5-2l11-8.5l2.5-8.5Z" opacity="0.886275" fill="#90797e" stroke="#90797e"/><path d="M377,196l2,.5L363.5,212L350,214l-1.5,4-3,1-2.5-1q1.1-2.7-1.5-2-5.4,3.6-14,4l-13,6q-11.7.8-20,5h-2l-13,3-2.5,2.5-4,20q2.3,1.3-.5,2.5l-.5-3.5l4-20l1.5-1.5l11-4l28-6l8-4l18-5l4,3q3.3-1.2,2.5-5l12.5-1l14-14h1.5v-2Z" opacity="0.886275" fill="#90797e" stroke="#90797e"/><path d="M330.5,200l1.5.5-5.5,2.5v-1l4-2Z" opacity="0.886275" fill="#90797e" stroke="#90797e"/><path d="M146.5,202l1.5,3q-2.7-1.1-2,1.5h-1l2-3-.5-1.5Z" opacity="0.886275" fill="#90797e" stroke="#90797e"/><path d="M322.5,204l-1,2l1-2Z" opacity="0.886275" fill="#90797e" stroke="#90797e"/><path d="M165.5,219h32l2.5,1l1,2.5-2.5-1.5-2-1h-26-2l-8,2h-7.5l-5,8-7.5,1v-1q7.9.9,9.5-4.5l3.5-4.5h5l7-2Z" opacity="0.886275" fill="#90797e" stroke="#90797e"/><path d="M130.5,231l2,1l5-1-1,2-3-1h-2l-1-1Z" opacity="0.886275" fill="#90797e" stroke="#90797e"/><path d="M347.5,250h11l4.5,4.5l2,10q-8.2,16.3-22.5,26.5L322,303.5q-4,9-11.5,14.5l-7,4-5,1q-8.5-1.5-12.5-7.5l-3-9l1-5-7-15.5-3-.5l4-.5l5,12q2.7-1.1,2,1.5l2-1l4.5-6.5l2.5,1.5-8,14-1,5.5q3,1.3,2-2.5l16-26L323.5,262q10-8,24-12Z" opacity="0.886275" fill="#90797e" stroke="#90797e"/><path d="M326.5,256l-1,2l1-2Z" opacity="0.886275" fill="#90797e" stroke="#90797e"/><path d="M320.5,258l-1,2-2,1l1-2l2-1Z" opacity="0.886275" fill="#90797e" stroke="#90797e"/><path d="M314.5,262l-9,10l9-10Z" opacity="0.886275" fill="#90797e" stroke="#90797e"/><path d="M239.5,264l2.5.5q-2.1,3.3-2.5-.5Z" opacity="0.886275" fill="#90797e" stroke="#90797e"/><path d="M252.5,264l2.5.5-2,.5-1.5,3-2.5-1.5l3.5-2.5Z" opacity="0.886275" fill="#90797e" stroke="#90797e"/><path d="M236.5,268l-1,2l1-2Z" opacity="0.886275" fill="#90797e" stroke="#90797e"/><path d="M227.5,269l6.5.5-6.5.5v-1Z" opacity="0.886275" fill="#90797e" stroke="#90797e"/><path d="M248,270l3,1.5q1.1,3.3-1.5,2.5l-10,6l2-3l3-2l2.5-1l1-4Z" opacity="0.886275" fill="#90797e" stroke="#90797e"/><path d="M223.5,274l-1,2l1-2Z" opacity="0.886275" fill="#90797e" stroke="#90797e"/><path d="M227.5,274l-7.5,8.5-.5,1.5-.5-1.5l8.5-8.5Z" opacity="0.886275" fill="#90797e" stroke="#90797e"/><path d="M212.5,279l1.5.5-1,2l2,3-2.5,1.5-1.5-2.5.5-1.5-4.5-1.5l5.5-1.5Z" opacity="0.886275" fill="#90797e" stroke="#90797e"/><path d="M235.5,279l-.5,1.5q.8,2.3-1.5,1.5l2-3Z" opacity="0.886275" fill="#90797e" stroke="#90797e"/><path d="M222.5,282l2.5,1-1.5,3-2.5-1l1.5-3Z" opacity="0.886275" fill="#90797e" stroke="#90797e"/><path d="M270.5,286l1.5.5-3,2-5.5,7.5-3,1v-1l4.5-3.5l2-3l3.5-3.5Z" opacity="0.886275" fill="#90797e" stroke="#90797e"/><path d="M208.5,291l.5,3.5-4.5,7.5-2,1l1.5-2.5v-2.5q3,1.3,2-2.5l2.5-4.5Z" opacity="0.886275" fill="#90797e" stroke="#90797e"/><path d="M245.5,297l6.5.5-6.5.5v-1Z" opacity="0.886275" fill="#90797e" stroke="#90797e"/><path d="M240.5,298l3.5.5-5.5,1.5v-1l2-1Z" opacity="0.886275" fill="#90797e" stroke="#90797e"/><path d="M177.5,299q6.5-1,8.5,2.5l-2.5.5q-.7-2.7-5-2l-3.5,3.5v13.5l3,1.5l2.5,5.5l3.5,2.5-1.5-.5q-2.6-.7-1.5,2h-3v2.5q-.5,4-5.5,3.5l-4-1v1l5.5,1.5-8.5,7.5-14,2-4.5-3.5v-7l2-9L162.5,306l.5,2.5-5,8l5-4l1.5-3.5l1.5-.5-1-2h3l-1,2l.5,2.5l2.5,1.5l2.5,5.5l1.5-14.5l3.5-4.5ZM167,311l-1,2-2,1h3v-3Zm2,4l-4,6l2,2l3-4l5,4l2-1-4-2-4-5Zm-12,4l-2,3q-1,2,2,1v-4Zm5,3v2l3,2l6,2l3-1-7-2-5-3Zm0,2l-2,4l2-1v-3Zm13,3v1h2l-2-1Zm-13,3l3,3h3l-6-3Zm-6,3l-1,4h1v-4Z" opacity="0.886275" fill="#90797e" stroke="#90797e"/><path d="M235.5,300l1.5.5-6,5-6.5,10.5-4,1v-1l5.5-2l6-12l3.5-2Z" opacity="0.886275" fill="#90797e" stroke="#90797e"/><path d="M196.5,303l4,2l2.5-1q1.7,4.1-2.5,3l-4.5-2.5.5-1.5Z" opacity="0.886275" fill="#90797e" stroke="#90797e"/><path d="M218.5,316v3q-2.2.8-1.5-1.5l1.5-1.5Z" opacity="0.886275" fill="#90797e" stroke="#90797e"/><path d="M212.5,322l-3,4l3-4Z" opacity="0.886275" fill="#90797e" stroke="#90797e"/><path d="M185.5,327l6.5,5.5-2.5-1.5-4-4Z" opacity="0.886275" fill="#90797e" stroke="#90797e"/></g></svg>
